<svg width="134" height="53" viewBox="0 0 134 53" fill="none" xmlns="http://www.w3.org/2000/svg">
<path d="M1.36 24C1.36 21.8933 1.72 19.9733 2.44 18.24C3.16 16.48 4.16 14.9733 5.44 13.72C6.72 12.44 8.21333 11.4533 9.92 10.76C11.6533 10.0667 13.52 9.72 15.52 9.72C18.4 9.72 20.9467 10.4133 23.16 11.8C25.4 13.16 27.08 15.12 28.2 17.68L23.68 19C23.0933 17.88 22.36 16.9733 21.48 16.28C20.6267 15.5867 19.6933 15.08 18.68 14.76C17.6667 14.44 16.64 14.28 15.6 14.28C13.8933 14.28 12.3733 14.6933 11.04 15.52C9.70667 16.32 8.66667 17.4533 7.92 18.92C7.2 20.3867 6.84 22.08 6.84 24C6.84 25.92 7.2 27.6133 7.92 29.08C8.66667 30.52 9.70667 31.6533 11.04 32.48C12.3733 33.3067 13.8933 33.72 15.6 33.72C16.6667 33.72 17.72 33.56 18.76 33.24C19.8267 32.8933 20.8133 32.32 21.72 31.52C22.6267 30.72 23.4 29.6533 24.04 28.32L28.48 29.56C27.3333 32.4667 25.6267 34.6533 23.36 36.12C21.0933 37.56 18.48 38.28 15.52 38.28C13.52 38.28 11.6533 37.9333 9.92 37.24C8.21333 36.5467 6.72 35.56 5.44 34.28C4.16 33 3.16 31.4933 2.44 29.76C1.72 28 1.36 26.08 1.36 24ZM32.7534 9.2H37.8734V38H32.7534V9.2ZM43.4725 18H48.5925V38H43.4725V18ZM46.0725 15.44C45.1125 15.44 44.3258 15.1467 43.7125 14.56C43.0992 13.9467 42.7925 13.2 42.7925 12.32C42.7925 11.44 43.0992 10.7067 43.7125 10.12C44.3258 9.50667 45.1125 9.2 46.0725 9.2C46.9792 9.2 47.7392 9.50667 48.3525 10.12C48.9925 10.7067 49.3125 11.44 49.3125 12.32C49.3125 13.2 48.9925 13.9467 48.3525 14.56C47.7392 15.1467 46.9792 15.44 46.0725 15.44ZM62.9988 38.28C61.0521 38.28 59.3454 37.8533 57.8788 37C56.4121 36.1467 55.2654 34.96 54.4388 33.44C53.6121 31.8933 53.1988 30.1067 53.1988 28.08C53.1988 26.0267 53.6121 24.2267 54.4388 22.68C55.2654 21.1333 56.4254 19.92 57.9188 19.04C59.4121 18.16 61.1321 17.72 63.0788 17.72C65.1854 17.72 67.0521 18.24 68.6788 19.28C70.3321 20.32 71.4921 21.72 72.1588 23.48L67.3988 24.84C67.0788 24.0667 66.5454 23.4533 65.7988 23C65.0788 22.5467 64.2521 22.32 63.3188 22.32C62.3854 22.32 61.5588 22.56 60.8388 23.04C60.1454 23.52 59.5988 24.1867 59.1988 25.04C58.8254 25.8933 58.6388 26.8933 58.6388 28.04C58.6388 29.7733 59.0654 31.1467 59.9188 32.16C60.7721 33.1733 61.9188 33.68 63.3588 33.68C64.2654 33.68 65.0921 33.4667 65.8388 33.04C66.5854 32.5867 67.1454 31.9733 67.5188 31.2L72.2388 32.56C71.5188 34.2933 70.3188 35.68 68.6388 36.72C66.9854 37.76 65.1054 38.28 62.9988 38.28ZM76.1519 9.2H81.3119V25.8H82.5919L89.1919 18H95.9119L87.0719 27.92L95.9519 38H89.2319L82.5519 30.08H81.3119V38H76.1519V9.2ZM110.337 10H115.737V38H110.337V10ZM122.397 18V12.4H127.597V18H131.997V22.52H127.597V30.64C127.597 31.68 127.81 32.4133 128.237 32.84C128.69 33.2667 129.25 33.4933 129.917 33.52C130.61 33.5467 131.303 33.5067 131.997 33.4V37.8C130.77 38.0667 129.57 38.1467 128.397 38.04C127.25 37.9333 126.223 37.6267 125.317 37.12C124.41 36.5867 123.69 35.7867 123.157 34.72C122.65 33.6533 122.397 32.2933 122.397 30.64V22.52H119.557V18H122.397Z" fill="white"/>
<path d="M39.125 48H37.8L36.1917 42.1667H37.4L38.4667 46.7L39.6333 42.1667H40.9L42.05 46.6833L43.125 42.1667H44.3333L42.7167 48H41.4L40.2667 43.8167L39.125 48ZM46.937 48.0583C46.5203 48.0583 46.1536 47.9667 45.837 47.7833C45.5203 47.6 45.2731 47.3444 45.0953 47.0167C44.9231 46.6889 44.837 46.3111 44.837 45.8833C44.837 45.4722 44.9231 45.1083 45.0953 44.7917C45.2675 44.475 45.5064 44.2278 45.812 44.05C46.1231 43.8667 46.4759 43.775 46.8703 43.775C47.2703 43.775 47.6231 43.8611 47.9286 44.0333C48.2342 44.2056 48.4703 44.4472 48.637 44.7583C48.8092 45.0639 48.8953 45.4222 48.8953 45.8333C48.8953 45.8944 48.8898 45.9639 48.8786 46.0417C48.8731 46.1139 48.8648 46.1917 48.8536 46.275H45.987C46.0092 46.4528 46.0648 46.6056 46.1536 46.7333C46.2481 46.8556 46.362 46.9528 46.4953 47.025C46.6342 47.0917 46.7898 47.125 46.962 47.125C47.1675 47.125 47.3509 47.0833 47.512 47C47.6786 46.9111 47.7981 46.7972 47.8703 46.6583L48.8203 46.9417C48.6536 47.2972 48.4036 47.5722 48.0703 47.7667C47.7425 47.9611 47.3648 48.0583 46.937 48.0583ZM47.7286 45.5C47.7231 45.3444 47.6814 45.2056 47.6036 45.0833C47.5259 44.9556 47.4231 44.8583 47.2953 44.7917C47.1675 44.7194 47.0259 44.6833 46.8703 44.6833C46.7314 44.6833 46.6009 44.7194 46.4786 44.7917C46.3564 44.8639 46.2509 44.9611 46.162 45.0833C46.0786 45.2 46.0231 45.3389 45.9953 45.5H47.7286ZM53.219 48H52.094V42.1667H53.3773L55.2357 46.5333L57.094 42.1667H58.3773V48H57.2523V44.2333L55.6773 48H54.794L53.219 44.2333V48ZM61.9077 48L61.8244 47.4917C61.6855 47.6639 61.5272 47.8 61.3494 47.9C61.1772 48 60.9439 48.05 60.6494 48.05C60.3716 48.05 60.1272 48.0028 59.9161 47.9083C59.7105 47.8083 59.5494 47.6722 59.4327 47.5C59.3161 47.3222 59.2577 47.1139 59.2577 46.875C59.2577 46.525 59.3827 46.2361 59.6327 46.0083C59.8883 45.775 60.2716 45.6278 60.7827 45.5667L61.8244 45.45V45.1583C61.8244 45.0417 61.7716 44.9333 61.6661 44.8333C61.5605 44.7333 61.3939 44.6833 61.1661 44.6833C60.9661 44.6833 60.7911 44.7333 60.6411 44.8333C60.4966 44.9278 60.3994 45.0722 60.3494 45.2667L59.4327 44.9333C59.5439 44.5611 59.755 44.275 60.0661 44.075C60.3772 43.875 60.7605 43.775 61.2161 43.775C61.7716 43.775 62.1883 43.9139 62.4661 44.1917C62.7494 44.4639 62.8911 44.825 62.8911 45.275V48H61.9077ZM61.8244 46.1917L60.9244 46.3083C60.7411 46.3306 60.6022 46.3861 60.5077 46.475C60.4133 46.5583 60.3661 46.6611 60.3661 46.7833C60.3661 46.9 60.4133 47 60.5077 47.0833C60.6022 47.1611 60.7355 47.2 60.9077 47.2C61.1022 47.2 61.2661 47.1639 61.3994 47.0917C61.5383 47.0194 61.6439 46.9139 61.7161 46.775C61.7883 46.6361 61.8244 46.4639 61.8244 46.2583V46.1917ZM63.8686 42H64.9436V45.4583H65.2102L66.5852 43.8333H67.9852L66.1436 45.9L67.9936 48H66.5936L65.2019 46.35H64.9436V48H63.8686V42ZM70.4965 48.0583C70.0799 48.0583 69.7132 47.9667 69.3965 47.7833C69.0799 47.6 68.8327 47.3444 68.6549 47.0167C68.4827 46.6889 68.3965 46.3111 68.3965 45.8833C68.3965 45.4722 68.4827 45.1083 68.6549 44.7917C68.8271 44.475 69.066 44.2278 69.3715 44.05C69.6827 43.8667 70.0354 43.775 70.4299 43.775C70.8299 43.775 71.1827 43.8611 71.4882 44.0333C71.7938 44.2056 72.0299 44.4472 72.1965 44.7583C72.3688 45.0639 72.4549 45.4222 72.4549 45.8333C72.4549 45.8944 72.4493 45.9639 72.4382 46.0417C72.4327 46.1139 72.4243 46.1917 72.4132 46.275H69.5465C69.5688 46.4528 69.6243 46.6056 69.7132 46.7333C69.8077 46.8556 69.9215 46.9528 70.0549 47.025C70.1938 47.0917 70.3493 47.125 70.5215 47.125C70.7271 47.125 70.9104 47.0833 71.0715 47C71.2382 46.9111 71.3577 46.7972 71.4299 46.6583L72.3799 46.9417C72.2132 47.2972 71.9632 47.5722 71.6299 47.7667C71.3021 47.9611 70.9243 48.0583 70.4965 48.0583ZM71.2882 45.5C71.2827 45.3444 71.241 45.2056 71.1632 45.0833C71.0854 44.9556 70.9827 44.8583 70.8549 44.7917C70.7271 44.7194 70.5854 44.6833 70.4299 44.6833C70.291 44.6833 70.1604 44.7194 70.0382 44.7917C69.916 44.8639 69.8104 44.9611 69.7215 45.0833C69.6382 45.2 69.5827 45.3389 69.5549 45.5H71.2882Z" fill="black"/>
<path d="M77.9328 17.3741L76.2411 15.7536L76.2411 18.0962L76.2411 31.5962L76.2411 40.596L76.2411 40.5962L76.2398 45.6054L76.2389 49.2213L78.0976 46.1197L82.5921 38.6195L82.5975 38.6106L82.6026 38.6016L84.2184 35.7739L88.9634 37.0676L97.454 39.5634L101.015 40.61L98.4618 37.9161L89.4602 28.4176L89.4436 28.4L89.4261 28.3833L77.9328 17.3741Z" fill="#B9FD50" stroke="black" stroke-width="2"/>
<path d="M87.198 41.88H92.164V42.8679H90.2755V48H89.0952V42.8679H87.198V41.88ZM92.9925 41.7051H94.1116V44.057C94.2456 43.9113 94.4118 43.7947 94.6099 43.7073C94.8139 43.614 95.0412 43.5674 95.2919 43.5674C95.6241 43.5674 95.9126 43.6402 96.1574 43.7859C96.408 43.9317 96.6004 44.1444 96.7344 44.4242C96.8685 44.6981 96.9355 45.0391 96.9355 45.4471V48H95.7552V45.5957C95.7552 45.2577 95.6882 45.0041 95.5542 44.8351C95.4201 44.6661 95.219 44.5815 94.9509 44.5815C94.677 44.5815 94.4671 44.6748 94.3214 44.8613C94.1815 45.042 94.1116 45.3014 94.1116 45.6394V48H92.9925V41.7051ZM99.9377 48.0612C99.5005 48.0612 99.1159 47.965 98.7836 47.7727C98.4514 47.5803 98.192 47.3122 98.0055 46.9683C97.8248 46.6245 97.7345 46.2281 97.7345 45.7793C97.7345 45.348 97.8248 44.9662 98.0055 44.634C98.1862 44.3018 98.4368 44.0424 98.7574 43.8559C99.0838 43.6635 99.4539 43.5674 99.8677 43.5674C100.287 43.5674 100.658 43.6577 100.978 43.8384C101.299 44.0191 101.546 44.2726 101.721 44.599C101.902 44.9196 101.992 45.2955 101.992 45.7269C101.992 45.791 101.986 45.8638 101.975 45.9454C101.969 46.0212 101.96 46.1028 101.949 46.1902H98.941C98.9643 46.3767 99.0226 46.537 99.1159 46.6711C99.2149 46.7993 99.3344 46.9013 99.4743 46.9771C99.62 47.047 99.7832 47.082 99.9639 47.082C100.18 47.082 100.372 47.0383 100.541 46.9509C100.716 46.8576 100.841 46.7381 100.917 46.5924L101.914 46.8897C101.739 47.2627 101.476 47.5512 101.127 47.7552C100.783 47.9592 100.386 48.0612 99.9377 48.0612ZM100.768 45.3771C100.762 45.2139 100.719 45.0682 100.637 44.94C100.556 44.8059 100.448 44.7039 100.314 44.634C100.18 44.5582 100.031 44.5203 99.8677 44.5203C99.722 44.5203 99.5851 44.5582 99.4568 44.634C99.3286 44.7098 99.2179 44.8118 99.1246 44.94C99.0372 45.0624 98.9789 45.2081 98.9497 45.3771H100.768ZM105.348 41.88H106.528V48H105.348V41.88ZM107.669 43.6286H108.683L108.762 44.057C108.902 43.9113 109.068 43.7947 109.26 43.7073C109.459 43.614 109.674 43.5674 109.907 43.5674C110.187 43.5674 110.444 43.6286 110.677 43.751C110.91 43.8675 111.096 44.0366 111.236 44.2581C111.394 44.0424 111.598 43.8734 111.848 43.751C112.105 43.6286 112.382 43.5674 112.679 43.5674C113.023 43.5674 113.32 43.6402 113.571 43.7859C113.827 43.9317 114.025 44.1444 114.165 44.4242C114.305 44.6981 114.375 45.0391 114.375 45.4471V48H113.256V45.5957C113.256 45.2635 113.183 45.0129 113.037 44.8438C112.892 44.6748 112.685 44.5903 112.417 44.5903C112.143 44.5903 111.927 44.6777 111.77 44.8526C111.618 45.0274 111.542 45.281 111.542 45.6132V48H110.423V45.5957C110.423 45.2635 110.356 45.0129 110.222 44.8438C110.094 44.6748 109.896 44.5903 109.628 44.5903C109.354 44.5903 109.144 44.6777 108.998 44.8526C108.858 45.0216 108.788 45.2722 108.788 45.6045V48H107.669V43.6286ZM116.367 47.3443L116.507 47.3268V49.7486H115.388V43.6286H116.402L116.472 44.1706C116.6 44.0016 116.781 43.8588 117.014 43.7422C117.247 43.6257 117.515 43.5674 117.818 43.5674C118.197 43.5674 118.532 43.6606 118.823 43.8471C119.115 44.0337 119.342 44.2959 119.505 44.634C119.674 44.9662 119.759 45.3597 119.759 45.8143C119.759 46.2689 119.674 46.6653 119.505 47.0033C119.342 47.3414 119.115 47.6037 118.823 47.7902C118.538 47.9709 118.203 48.0612 117.818 48.0612C117.48 48.0612 117.186 47.9913 116.935 47.8514C116.69 47.7115 116.501 47.5425 116.367 47.3443ZM118.552 45.8143C118.552 45.4471 118.456 45.1527 118.264 44.9313C118.077 44.7039 117.833 44.5903 117.53 44.5903C117.343 44.5903 117.171 44.6398 117.014 44.7389C116.862 44.8322 116.74 44.9691 116.647 45.1498C116.553 45.3247 116.507 45.5462 116.507 45.8143C116.507 46.0766 116.553 46.2981 116.647 46.4787C116.74 46.6594 116.862 46.7993 117.014 46.8984C117.171 46.9917 117.343 47.0383 117.53 47.0383C117.833 47.0383 118.077 46.9275 118.264 46.7061C118.456 46.4787 118.552 46.1815 118.552 45.8143ZM123.183 48L123.096 47.4667C122.95 47.6474 122.784 47.7902 122.597 47.8951C122.417 48 122.172 48.0525 121.863 48.0525C121.572 48.0525 121.315 48.0029 121.094 47.9038C120.878 47.7989 120.709 47.6561 120.587 47.4754C120.464 47.2889 120.403 47.0703 120.403 46.8197C120.403 46.4525 120.534 46.1494 120.796 45.9105C121.064 45.6657 121.467 45.5112 122.003 45.4471L123.096 45.3247V45.0187C123.096 44.8963 123.04 44.7826 122.93 44.6777C122.819 44.5728 122.644 44.5203 122.405 44.5203C122.195 44.5203 122.012 44.5728 121.854 44.6777C121.703 44.7768 121.601 44.9283 121.548 45.1323L120.587 44.7826C120.703 44.3921 120.925 44.0919 121.251 43.8821C121.577 43.6723 121.98 43.5674 122.458 43.5674C123.04 43.5674 123.478 43.7131 123.769 44.0045C124.066 44.2901 124.215 44.669 124.215 45.1411V48H123.183ZM123.096 46.1028L122.152 46.2252C121.959 46.2485 121.813 46.3068 121.714 46.4001C121.615 46.4875 121.566 46.5953 121.566 46.7235C121.566 46.8459 121.615 46.9509 121.714 47.0383C121.813 47.1199 121.953 47.1607 122.134 47.1607C122.338 47.1607 122.51 47.1228 122.65 47.047C122.796 46.9713 122.906 46.8605 122.982 46.7148C123.058 46.5691 123.096 46.3884 123.096 46.1727V46.1028ZM127.164 48.0612C126.738 48.0612 126.365 47.9679 126.045 47.7814C125.724 47.5949 125.473 47.3355 125.293 47.0033C125.112 46.6653 125.022 46.2747 125.022 45.8318C125.022 45.383 125.112 44.9895 125.293 44.6515C125.473 44.3134 125.727 44.0482 126.053 43.8559C126.38 43.6635 126.756 43.5674 127.181 43.5674C127.642 43.5674 128.05 43.681 128.405 43.9083C128.767 44.1357 129.02 44.4417 129.166 44.8263L128.125 45.1236C128.056 44.9546 127.939 44.8205 127.776 44.7214C127.618 44.6223 127.438 44.5728 127.234 44.5728C127.03 44.5728 126.849 44.6253 126.692 44.7302C126.54 44.8351 126.421 44.9808 126.333 45.1673C126.252 45.3538 126.211 45.5724 126.211 45.823C126.211 46.2019 126.304 46.5021 126.491 46.7235C126.677 46.945 126.928 47.0558 127.242 47.0558C127.441 47.0558 127.621 47.0091 127.784 46.9159C127.948 46.8168 128.07 46.6827 128.152 46.5137L129.183 46.811C129.026 47.1898 128.764 47.4929 128.396 47.7202C128.035 47.9475 127.624 48.0612 127.164 48.0612ZM130.353 43.6286V42.4046H131.49V43.6286H132.452V44.6165H131.49V46.3913C131.49 46.6186 131.537 46.7789 131.63 46.8722C131.729 46.9654 131.851 47.015 131.997 47.0208C132.149 47.0266 132.3 47.0179 132.452 46.9946V47.9563C132.184 48.0146 131.921 48.0321 131.665 48.0087C131.414 47.9854 131.19 47.9184 130.992 47.8077C130.793 47.6911 130.636 47.5162 130.52 47.2831C130.409 47.0499 130.353 46.7527 130.353 46.3913V44.6165H129.733V43.6286H130.353Z" fill="black"/>
</svg>
